ply
format ascii 1.0
comment Created by Blender 2.62 (sub 0) - www.blender.org, source file: 'castle.blend'
element vertex 630
property float x
property float y
property float z
property float nx
property float ny
property float nz
element face 656
property list uchar uint vertex_indices
end_header
0.000000 0.000000 0.000000 0.133061 0.089846 0.986999
-0.007571 1.065685 0.121135 0.997345 -0.006989 0.072146
-0.215474 1.045208 0.121135 0.190313 -0.956511 0.221015
-0.415389 0.984565 0.121135 0.373241 -0.900967 0.221076
-0.599633 0.886085 0.121135 0.541856 -0.810846 0.221137
-0.761123 0.753554 0.121135 0.689596 -0.689535 0.221198
-0.893655 0.592064 0.121135 0.810877 -0.541765 0.221259
-0.992135 0.407821 0.121135 0.900967 -0.373150 0.221290
-1.052779 0.207906 0.121135 0.956450 -0.190222 0.221290
-1.073256 0.000001 0.121135 0.975188 0.000000 0.221320
-1.052779 -0.207904 0.121135 0.956450 0.190222 0.221290
-0.992136 -0.407819 0.121135 0.900967 0.373150 0.221290
-0.893656 -0.592062 0.121135 0.810877 0.541765 0.221259
-0.761124 -0.753552 0.121135 0.689596 0.689535 0.221198
-0.599634 -0.886084 0.121135 0.541856 0.810846 0.221137
-0.415391 -0.984564 0.121135 0.373241 0.900967 0.221076
-0.215476 -1.045208 0.121135 0.190313 0.956511 0.221015
-0.007571 -1.065685 0.121135 0.000061 0.975280 0.220954
0.200334 -1.045208 0.121135 -0.190191 0.956572 0.220862
0.400249 -0.984564 0.121135 -0.373150 0.901089 0.220801
0.584492 -0.886085 0.121135 -0.541795 0.810968 0.220740
0.745982 -0.753553 0.121135 -0.689627 0.689688 0.220679
0.878514 -0.592063 0.121135 -0.810938 0.541887 0.220649
0.976994 -0.407820 0.121135 0.380016 0.924558 0.027802
1.037637 -0.207905 0.121135 0.956603 -0.190283 -0.220588
1.058114 0.000000 0.121135 0.975341 0.000000 -0.220588
1.037637 0.207905 0.121135 0.956603 0.190283 -0.220588
0.976994 0.407820 0.121135 0.901089 0.373272 -0.220588
0.878514 0.592063 0.121135 0.810938 0.541887 -0.220649
0.745982 0.753553 0.121135 0.689627 0.689688 -0.220679
0.584492 0.886084 0.121135 0.541795 0.810968 -0.220740
0.400249 0.984564 0.121135 0.373150 0.901089 -0.220801
0.200334 1.045208 0.121135 0.190191 0.956572 -0.220862
-0.007571 0.939682 0.204415 0.876827 -0.350017 -0.329569
0.175752 0.921626 0.204415 0.131809 0.676412 0.724601
0.352030 0.868153 0.204415 0.263710 0.643483 0.718558
0.514488 0.781317 0.204415 0.387646 0.584460 0.712790
0.656884 0.664455 0.204415 0.498154 0.501114 0.707572
0.773746 0.522059 0.204415 0.590228 0.396374 0.703177
0.860582 0.359601 0.204415 0.659474 0.274422 0.699820
0.914055 0.183323 0.204415 0.702445 0.140324 0.697714
0.932111 0.000000 0.204415 0.717032 0.000000 0.697012
0.914055 -0.183323 0.204415 0.702445 -0.140324 0.697714
0.860582 -0.359600 0.204415 0.221778 0.966216 -0.131138
0.773746 -0.522059 0.204415 -0.590228 0.396374 -0.703177
0.656884 -0.664455 0.204415 -0.498154 0.501114 -0.707572
0.514488 -0.781317 0.204415 -0.387646 0.584460 -0.712790
0.352030 -0.868153 0.204415 -0.263710 0.643483 -0.718558
0.175752 -0.921626 0.204415 -0.131809 0.676412 -0.724601
-0.007571 -0.939682 0.204415 0.002625 0.682730 -0.730644
-0.190894 -0.921626 0.204415 0.134434 0.662954 -0.736442
-0.367172 -0.868153 0.204415 0.258736 0.618641 -0.741813
-0.529631 -0.781317 0.204415 0.371258 0.551988 -0.746605
-0.672027 -0.664455 0.204415 0.468337 0.465957 -0.750664
-0.788888 -0.522059 0.204415 0.546983 0.363903 -0.753899
-0.875724 -0.359600 0.204415 0.604785 0.249550 -0.756249
-0.929197 -0.183322 0.204415 0.640156 0.126865 -0.757653
-0.947253 0.000001 0.204415 0.652058 0.000000 -0.758141
-0.929197 0.183324 0.204415 0.640156 -0.126865 -0.757653
-0.875723 0.359602 0.204415 0.604785 -0.249550 -0.756249
-0.788887 0.522060 0.204415 0.546983 -0.363903 -0.753899
-0.672025 0.664456 0.204415 0.468337 -0.465957 -0.750664
-0.529629 0.781318 0.204415 0.371258 -0.551988 -0.746605
-0.367170 0.868153 0.204415 0.258736 -0.618641 -0.741813
-0.190892 0.921626 0.204415 0.134434 -0.662954 -0.736442
0.007571 0.861553 0.310408 0.913907 0.355113 0.196600
-0.160508 0.844999 0.310408 0.191504 -0.981384 -0.012543
-0.322130 0.795972 0.310408 0.379467 -0.924924 -0.021271
-0.471081 0.716356 0.310408 0.552843 -0.832759 -0.029145
-0.601638 0.609211 0.310408 0.704856 -0.708396 -0.035890
-0.708784 0.478654 0.310408 0.829676 -0.556688 -0.041353
-0.788400 0.329703 0.310408 0.922391 -0.383496 -0.045351
-0.837427 0.168082 0.310408 0.979522 -0.195502 -0.047792
-0.853982 0.000001 0.310408 0.998810 0.000000 -0.048585
-0.837428 -0.168080 0.310408 0.979522 0.195502 -0.047792
-0.788400 -0.329701 0.310408 0.922391 0.383496 -0.045351
-0.708785 -0.478653 0.310408 0.829676 0.556688 -0.041353
-0.601639 -0.609209 0.310408 0.704856 0.708396 -0.035890
-0.471083 -0.716355 0.310408 0.552843 0.832759 -0.029145
-0.322132 -0.795971 0.310408 0.379467 0.924924 -0.021271
-0.160510 -0.844998 0.310408 0.191504 0.981384 -0.012543
0.007571 -0.861553 0.310408 -0.003754 0.999969 -0.003235
0.175651 -0.844998 0.310408 -0.198767 0.980010 0.006226
0.337273 -0.795971 0.310408 -0.385937 0.922361 0.015564
0.486224 -0.716355 0.310408 -0.558123 0.829371 0.024354
0.616781 -0.609210 0.310408 -0.708731 0.704703 0.032167
0.723926 -0.478653 0.310408 -0.832087 0.553270 0.038697
0.803542 -0.329702 0.310408 0.524125 0.848842 0.068819
0.852569 -0.168081 0.310408 0.979858 -0.194067 -0.046632
0.869124 0.000000 0.310408 0.998840 0.000000 -0.047639
0.852569 0.168081 0.310408 0.979858 0.194067 -0.046632
0.803542 0.329702 0.310408 0.923582 0.380840 -0.043580
0.723926 0.478653 0.310408 0.832087 0.553270 -0.038697
0.616781 0.609210 0.310408 0.708731 0.704703 -0.032167
0.486224 0.716355 0.310408 0.558123 0.829371 -0.024354
0.337273 0.795971 0.310408 0.385937 0.922361 -0.015564
0.175652 0.844998 0.310408 0.198767 0.980010 -0.006226
0.007571 0.894550 0.355833 0.989044 0.140599 -0.044710
0.182089 0.877362 0.355833 0.169134 0.844447 -0.508194
0.349901 0.826457 0.355833 0.331248 0.796838 -0.505264
0.504557 0.743792 0.355833 0.481124 0.718284 -0.502518
0.640114 0.632543 0.355833 0.612903 0.611713 -0.500107
0.751362 0.496985 0.355833 0.721335 0.481155 -0.498123
0.834028 0.342330 0.355833 0.802026 0.331706 -0.496628
0.884933 0.174518 0.355833 0.851802 0.169195 -0.495712
0.902121 0.000000 0.355833 0.868618 0.000000 -0.495407
0.884933 -0.174518 0.355833 0.851802 -0.169195 -0.495712
0.834028 -0.342329 0.355833 0.433180 0.901151 -0.015503
0.751362 -0.496985 0.355833 -0.721335 0.481155 0.498123
0.640114 -0.632543 0.355833 -0.612903 0.611713 0.500107
0.504557 -0.743792 0.355833 -0.481124 0.718284 0.502518
0.349900 -0.826457 0.355833 -0.331248 0.796838 0.505264
0.182089 -0.877362 0.355833 -0.169134 0.844447 0.508194
0.007571 -0.894550 0.355833 -0.001160 0.859401 0.511246
-0.166948 -0.877362 0.355833 0.166173 0.841334 0.514267
-0.334759 -0.826457 0.355833 0.326518 0.791131 0.517167
-0.489415 -0.743791 0.355833 0.473800 0.710837 0.519791
-0.624972 -0.632542 0.355833 0.602496 0.603626 0.522080
-0.736221 -0.496985 0.355833 0.707816 0.473708 0.523972
-0.818886 -0.342329 0.355833 0.785913 0.325999 0.525346
-0.869791 -0.174517 0.355833 0.833949 0.166112 0.526200
-0.886980 0.000001 0.355833 0.850154 0.000000 0.526505
-0.869791 0.174519 0.355833 0.833949 -0.166112 0.526200
-0.818886 0.342331 0.355833 0.785913 -0.325999 0.525346
-0.736220 0.496987 0.355833 0.707816 -0.473708 0.523972
-0.624971 0.632544 0.355833 0.602466 -0.603656 0.522080
-0.489414 0.743792 0.355833 0.473800 -0.710837 0.519791
-0.334758 0.826457 0.355833 0.326518 -0.791131 0.517167
-0.166946 0.877362 0.355833 0.166173 -0.841334 0.514267
-0.000000 0.978841 0.529964 0.987487 0.113742 0.109134
-0.190961 0.960033 0.529964 0.188788 -0.954680 0.229987
-0.374585 0.904332 0.529964 0.370617 -0.897427 0.239174
-0.543814 0.813877 0.529964 0.537461 -0.806085 0.247627
-0.692144 0.692146 0.529964 0.683157 -0.684286 0.254982
-0.813876 0.543816 0.529964 0.802271 -0.536821 0.261025
-0.904331 0.374587 0.529964 0.890530 -0.369335 0.265481
-0.960033 0.190963 0.529964 0.944792 -0.188147 0.268227
-0.978841 0.000001 0.529964 0.963073 0.000000 0.269143
-0.960033 -0.190962 0.529964 0.944792 0.188147 0.268227
-0.904332 -0.374586 0.529964 0.890530 0.369335 0.265481
-0.813877 -0.543814 0.529964 0.802271 0.536821 0.261025
-0.692146 -0.692145 0.529964 0.683157 0.684286 0.254982
-0.543815 -0.813876 0.529964 0.537461 0.806085 0.247627
-0.374587 -0.904331 0.529964 0.370617 0.897427 0.239174
-0.190963 -0.960033 0.529964 0.188788 0.954680 0.229987
-0.000000 -0.978841 0.529964 -0.001068 0.975402 0.220405
0.190962 -0.960033 0.529964 -0.191717 0.958525 0.210791
0.374586 -0.904331 0.529964 -0.375713 0.904538 0.201514
0.543815 -0.813877 0.529964 -0.545854 0.815332 0.192938
0.692145 -0.692145 0.529964 -0.695364 0.694296 0.185430
0.813877 -0.543815 0.529964 -0.818293 0.546068 0.179235
0.904331 -0.374586 0.529964 0.419996 0.906339 0.046297
0.960033 -0.190962 0.529964 0.966216 -0.191992 -0.171789
0.978841 0.000000 0.529964 0.985290 0.000000 -0.170843
0.960033 0.190962 0.529964 0.966216 0.191992 -0.171789
0.904331 0.374586 0.529964 0.909818 0.376415 -0.174627
0.813877 0.543815 0.529964 0.818293 0.546068 -0.179235
0.692145 0.692145 0.529964 0.695364 0.694296 -0.185430
0.543815 0.813877 0.529964 0.545854 0.815332 -0.192938
0.374586 0.904331 0.529964 0.375713 0.904538 -0.201514
0.190962 0.960033 0.529964 0.191717 0.958525 -0.210791
-0.007571 0.978841 0.643528 0.929685 -0.350414 -0.113407
0.183391 0.960033 0.643528 0.173650 0.889767 0.422040
0.367015 0.904331 0.643528 0.343516 0.837367 0.425153
0.536244 0.813877 0.643528 0.499802 0.752983 0.428022
0.684574 0.692145 0.643528 0.636555 0.639882 0.430494
0.806306 0.543815 0.643528 0.748619 0.502457 0.432478
0.896760 0.374586 0.643528 0.831843 0.345927 0.433973
0.952462 0.190962 0.643528 0.883023 0.176305 0.434889
0.971270 -0.000000 0.643528 0.900327 0.000000 0.435194
0.952462 -0.190962 0.643528 0.883023 -0.176305 0.434889
0.896760 -0.374586 0.643528 0.244881 0.968108 -0.052644
0.806306 -0.543815 0.643528 -0.748619 0.502457 -0.432478
0.684574 -0.692145 0.643528 -0.636555 0.639882 -0.430494
0.536244 -0.813877 0.643528 -0.499802 0.752983 -0.428022
0.367015 -0.904331 0.643528 -0.343516 0.837367 -0.425153
0.183391 -0.960033 0.643528 -0.173650 0.889767 -0.422040
-0.007571 -0.978841 0.643528 0.003296 0.908078 -0.418744
-0.198534 -0.960033 0.643528 0.180639 0.891476 -0.415418
-0.382158 -0.904331 0.643528 0.351482 0.840541 -0.412214
-0.551386 -0.813876 0.643528 0.509201 0.757103 -0.409223
-0.699717 -0.692145 0.643528 0.647664 0.644337 -0.406568
-0.821448 -0.543814 0.643528 0.761437 0.506577 -0.404401
-0.911902 -0.374586 0.643528 0.846095 0.349071 -0.402783
-0.967604 -0.190962 0.643528 0.898251 0.178014 -0.401776
-0.986412 0.000001 0.643528 0.915860 0.000000 -0.401440
-0.967604 0.190963 0.643528 0.898251 -0.178014 -0.401776
-0.911902 0.374587 0.643528 0.846095 -0.349071 -0.402783
-0.821447 0.543816 0.643528 0.761437 -0.506577 -0.404401
-0.699715 0.692146 0.643528 0.647664 -0.644337 -0.406568
-0.551385 0.813877 0.643528 0.509201 -0.757103 -0.409223
-0.382156 0.904332 0.643528 0.351482 -0.840541 -0.412214
-0.198532 0.960033 0.643528 0.180639 -0.891476 -0.415418
0.000000 0.858187 0.741950 0.926115 0.016572 -0.376812
-0.167423 0.841697 0.741950 0.098117 -0.493912 -0.863918
-0.328413 0.792862 0.741950 0.190588 -0.460463 -0.866939
-0.476782 0.713557 0.741950 0.274148 -0.410504 -0.869625
-0.606829 0.606831 0.741950 0.346110 -0.346263 -0.871944
-0.713556 0.476784 0.741950 0.404309 -0.270241 -0.873775
-0.792861 0.328415 0.741950 0.447035 -0.185247 -0.875088
-0.841697 0.167425 0.741950 0.473159 -0.094150 -0.875912
-0.858187 0.000001 0.741950 0.481948 0.000000 -0.876186
-0.841697 -0.167423 0.741950 0.473159 0.094150 -0.875912
-0.792862 -0.328413 0.741950 0.447035 0.185247 -0.875088
-0.713557 -0.476783 0.741950 0.404309 0.270241 -0.873775
-0.606830 -0.606829 0.741950 0.346110 0.346263 -0.871944
-0.476783 -0.713556 0.741950 0.274148 0.410504 -0.869625
-0.328414 -0.792861 0.741950 0.190588 0.460463 -0.866939
-0.167424 -0.841697 0.741950 0.098117 0.493912 -0.863918
-0.000000 -0.858187 0.741950 -0.000061 0.509110 -0.860683
0.167424 -0.841697 0.741950 -0.100497 0.504898 -0.857295
0.328414 -0.792861 0.741950 -0.199164 0.480758 -0.853908
0.476783 -0.713556 0.741950 -0.292032 0.437056 -0.850673
0.606830 -0.606830 0.741950 -0.375011 0.375042 -0.847743
0.713556 -0.476783 0.741950 -0.444258 0.296854 -0.845271
0.792861 -0.328414 0.741950 0.374371 0.912473 -0.164983
0.841697 -0.167424 0.741950 0.528764 -0.105167 0.842219
0.858187 0.000000 0.741950 0.539750 0.000000 0.841823
0.841697 0.167424 0.741950 0.528764 0.105167 0.842219
0.792861 0.328414 0.741950 0.496353 0.205603 0.843379
0.713556 0.476783 0.741950 0.444258 0.296854 0.845271
0.606830 0.606830 0.741950 0.375011 0.375042 0.847743
0.476783 0.713556 0.741950 0.292032 0.437056 0.850673
0.328414 0.792861 0.741950 0.199164 0.480758 0.853908
0.167424 0.841697 0.741950 0.100497 0.504898 0.857295
0.015142 0.720437 0.794947 0.925138 0.018311 0.379131
0.155692 0.706594 0.794947 0.159551 0.801050 0.576891
0.290841 0.665597 0.794947 0.314432 0.758476 0.570757
0.415395 0.599021 0.794947 0.458602 0.685873 0.564989
0.524567 0.509426 0.794947 0.586077 0.585711 0.559832
0.614163 0.400253 0.794947 0.691488 0.461745 0.555498
0.680738 0.275699 0.794947 0.770257 0.318857 0.552263
0.721735 0.140550 0.794947 0.818964 0.162786 0.550249
0.735578 0.000000 0.794947 0.835444 0.000000 0.549547
0.721735 -0.140550 0.794947 0.818964 -0.162786 0.550249
0.680738 -0.275699 0.794947 0.397382 0.902646 0.165258
0.614163 -0.400253 0.794947 -0.691488 0.461745 -0.555498
0.524567 -0.509425 0.794947 -0.586077 0.585711 -0.559832
0.415395 -0.599021 0.794947 -0.458602 0.685873 -0.564989
0.290841 -0.665596 0.794947 -0.314432 0.758476 -0.570757
0.155692 -0.706593 0.794947 -0.159551 0.801050 -0.576891
0.015142 -0.720436 0.794947 -0.000153 0.812372 -0.583117
-0.125409 -0.706593 0.794947 0.157506 0.792474 -0.589190
-0.260558 -0.665596 0.794947 0.307535 0.742607 -0.594897
-0.385111 -0.599021 0.794947 0.444411 0.665120 -0.600055
-0.494284 -0.509425 0.794947 0.563280 0.563250 -0.604480
-0.583879 -0.400253 0.794947 0.660085 0.441023 -0.608051
-0.650455 -0.275698 0.794947 0.731590 0.302988 -0.610675
-0.691452 -0.140550 0.794947 0.775414 0.154210 -0.612293
-0.705295 0.000001 0.794947 0.790185 0.000000 -0.612842
-0.691452 0.140551 0.794947 0.775414 -0.154210 -0.612293
-0.650454 0.275700 0.794947 0.731590 -0.302988 -0.610675
-0.583879 0.400254 0.794947 0.660085 -0.441023 -0.608051
-0.494283 0.509426 0.794947 0.563280 -0.563250 -0.604480
-0.385110 0.599022 0.794947 0.444411 -0.665120 -0.600055
-0.260556 0.665597 0.794947 0.307535 -0.742607 -0.594897
-0.125407 0.706594 0.794947 0.157506 -0.792474 -0.589190
0.022713 0.720437 0.991791 0.620106 0.580309 0.527879
-0.117836 0.706594 0.991791 0.175542 -0.928037 -0.328440
-0.252985 0.665597 0.991791 0.355754 -0.882199 -0.308420
-0.377539 0.599022 0.991791 0.524918 -0.800928 -0.287942
-0.486712 0.509426 0.991791 0.675741 -0.686544 -0.268258
-0.576308 0.400254 0.991791 0.801386 -0.543016 -0.250801
-0.642883 0.275700 0.991791 0.895810 -0.375896 -0.237037
-0.683881 0.140551 0.991791 0.954436 -0.192206 -0.228248
-0.697724 0.000001 0.991791 0.974303 0.000000 -0.225196
-0.683881 -0.140550 0.991791 0.954436 0.192206 -0.228248
-0.642884 -0.275699 0.991791 0.895810 0.375896 -0.237037
-0.576309 -0.400253 0.991791 0.801386 0.543016 -0.250801
-0.486713 -0.509425 0.991791 0.675741 0.686544 -0.268258
-0.377541 -0.599021 0.991791 0.524918 0.800928 -0.287942
-0.252987 -0.665596 0.991791 0.355754 0.882199 -0.308420
-0.117838 -0.706593 0.991791 0.175542 0.928037 -0.328440
0.022713 -0.720436 0.991791 -0.008484 0.937803 -0.347026
0.163263 -0.706593 0.991791 -0.189428 0.912076 -0.363567
0.298412 -0.665596 0.991791 -0.360790 0.852687 -0.377758
0.422966 -0.599021 0.991791 -0.516678 0.762444 -0.389477
0.532138 -0.509425 0.991791 -0.651875 0.644948 -0.398816
0.621734 -0.400253 0.991791 -0.761956 0.504624 -0.405866
0.688309 -0.275699 0.991791 0.590716 0.745964 0.307505
0.729306 -0.140550 0.991791 0.893155 -0.176366 0.413648
0.743149 0.000000 0.991791 0.909970 0.000000 0.414624
0.729306 0.140550 0.991791 0.893155 0.176366 0.413648
0.688309 0.275699 0.991791 0.843287 0.346568 0.410779
0.621734 0.400253 0.991791 0.761956 0.504624 0.405866
0.532138 0.509426 0.991791 0.651875 0.644948 0.398816
0.422966 0.599021 0.991791 0.516678 0.762444 0.389477
0.298412 0.665597 0.991791 0.360790 0.852687 0.377758
0.163263 0.706594 0.991791 0.189428 0.912076 0.363567
0.000000 0.673980 1.044787 0.594775 -0.666066 -0.450026
0.131487 0.661029 1.044787 0.185064 0.982147 -0.032868
0.257921 0.622676 1.044787 0.374279 0.927213 -0.011383
0.374443 0.560394 1.044787 0.549058 0.835719 0.007080
0.476576 0.476576 1.044787 0.702414 0.711386 0.022248
0.560394 0.374443 1.044787 0.828272 0.559221 0.034028
0.622676 0.257921 1.044787 0.921781 0.385327 0.042421
0.661029 0.131487 1.044787 0.979339 0.196448 0.047426
0.673980 0.000000 1.044787 0.998779 0.000000 0.049074
0.661029 -0.131487 1.044787 0.979339 -0.196448 0.047426
0.622676 -0.257921 1.044787 0.066652 0.947539 -0.312540
0.560394 -0.374443 1.044787 -0.828272 0.559221 -0.034028
0.476576 -0.476575 1.044787 -0.702414 0.711386 -0.022248
0.374443 -0.560393 1.044787 -0.549058 0.835719 -0.007080
0.257921 -0.622676 1.044787 -0.374279 0.927213 0.011383
0.131487 -0.661029 1.044787 -0.185064 0.982147 0.032868
-0.000000 -0.673980 1.044787 0.010834 0.998291 0.056917
-0.131487 -0.661029 1.044787 0.205390 0.975158 0.082766
-0.257921 -0.622676 1.044787 0.390606 0.914029 0.109287
-0.374443 -0.560393 1.044787 0.559099 0.817957 0.135166
-0.476576 -0.476575 1.044787 0.704611 0.691549 0.158910
-0.560394 -0.374443 1.044787 0.822138 0.540330 0.179113
-0.622676 -0.257920 1.044787 0.908231 0.370464 0.194464
-0.661029 -0.131486 1.044787 0.960662 0.188299 0.204047
-0.673980 0.000001 1.044787 0.978271 0.000000 0.207312
-0.661029 0.131488 1.044787 0.960662 -0.188299 0.204047
-0.622676 0.257922 1.044787 0.908231 -0.370464 0.194464
-0.560393 0.374444 1.044787 0.822138 -0.540330 0.179113
-0.476575 0.476576 1.044787 0.704611 -0.691549 0.158910
-0.374442 0.560394 1.044787 0.559099 -0.817957 0.135166
-0.257920 0.622676 1.044787 0.390606 -0.914029 0.109287
-0.131486 0.661029 1.044787 0.205390 -0.975158 0.082766
0.000000 0.731184 1.097783 1.000000 0.000000 0.000000
-0.142646 0.717135 1.097783 0.192694 -0.968841 -0.155553
-0.279811 0.675526 1.097783 0.378002 -0.912625 -0.155553
-0.406223 0.607958 1.097783 0.548784 -0.821345 -0.155553
-0.517025 0.517026 1.097783 0.698477 -0.698477 -0.155553
-0.607957 0.406225 1.097783 0.821345 -0.548784 -0.155553
-0.675526 0.279813 1.097783 0.912625 -0.378002 -0.155553
-0.717134 0.142648 1.097783 0.968841 -0.192694 -0.155553
-0.731184 0.000001 1.097783 0.987823 0.000000 -0.155553
-0.717135 -0.142646 1.097783 0.968841 0.192694 -0.155553
-0.675526 -0.279811 1.097783 0.912625 0.378002 -0.155553
-0.607958 -0.406224 1.097783 0.821345 0.548784 -0.155553
-0.517026 -0.517025 1.097783 0.698477 0.698477 -0.155553
-0.406224 -0.607957 1.097783 0.548784 0.821345 -0.155553
-0.279812 -0.675526 1.097783 0.378002 0.912625 -0.155553
-0.142647 -0.717134 1.097783 0.192694 0.968841 -0.155553
-0.000000 -0.731184 1.097783 0.000000 0.987823 -0.155553
0.142647 -0.717135 1.097783 -0.192694 0.968841 -0.155553
0.279812 -0.675526 1.097783 -0.378002 0.912625 -0.155553
0.406224 -0.607957 1.097783 -0.548784 0.821345 -0.155553
0.517025 -0.517025 1.097783 -0.698477 0.698477 -0.155553
0.607957 -0.406224 1.097783 -0.821345 0.548784 -0.155553
0.675526 -0.279812 1.097783 0.382672 0.923856 0.000000
0.717135 -0.142647 1.097783 0.968841 -0.192694 0.155553
0.731184 0.000000 1.097783 0.987823 0.000000 0.155553
0.717135 0.142647 1.097783 0.968841 0.192694 0.155553
0.675526 0.279812 1.097783 0.912625 0.378002 0.155553
0.607957 0.406224 1.097783 0.821345 0.548784 0.155553
0.517025 0.517025 1.097783 0.698477 0.698477 0.155553
0.406224 0.607957 1.097783 0.548784 0.821345 0.155553
0.279812 0.675526 1.097783 0.378002 0.912625 0.155553
0.142647 0.717135 1.097783 0.192694 0.968841 0.155553
0.000000 0.595185 1.158351 1.000000 0.000000 0.000000
0.116115 0.583748 1.158351 0.160710 0.808039 0.566729
0.227767 0.549879 1.158351 0.315287 0.761162 0.566729
0.330667 0.494878 1.158351 0.457717 0.685018 0.566729
0.420859 0.420859 1.158351 0.582568 0.582568 0.566729
0.494878 0.330667 1.158351 0.685018 0.457717 0.566729
0.549879 0.227767 1.158351 0.761162 0.315287 0.566729
0.583748 0.116115 1.158351 0.808039 0.160710 0.566729
0.595185 0.000000 1.158351 0.823878 0.000000 0.566729
0.583748 -0.116115 1.158351 0.808039 -0.160710 0.566729
0.549879 -0.227767 1.158351 0.382672 0.923856 0.000000
0.494878 -0.330667 1.158351 -0.685018 0.457717 -0.566729
0.420859 -0.420859 1.158351 -0.582568 0.582568 -0.566729
0.330667 -0.494878 1.158351 -0.457717 0.685018 -0.566729
0.227767 -0.549879 1.158351 -0.315287 0.761162 -0.566729
0.116115 -0.583748 1.158351 -0.160710 0.808039 -0.566729
-0.000000 -0.595185 1.158351 0.000000 0.823878 -0.566729
-0.116115 -0.583748 1.158351 0.160710 0.808039 -0.566729
-0.227768 -0.549879 1.158351 0.315287 0.761162 -0.566729
-0.330667 -0.494878 1.158351 0.457717 0.685018 -0.566729
-0.420859 -0.420859 1.158351 0.582568 0.582568 -0.566729
-0.494878 -0.330666 1.158351 0.685018 0.457717 -0.566729
-0.549879 -0.227767 1.158351 0.761162 0.315256 -0.566729
-0.583748 -0.116114 1.158351 0.808039 0.160710 -0.566729
-0.595185 0.000001 1.158351 0.823878 0.000000 -0.566729
-0.583748 0.116115 1.158351 0.808039 -0.160710 -0.566729
-0.549879 0.227768 1.158351 0.761162 -0.315287 -0.566729
-0.494877 0.330668 1.158351 0.685018 -0.457717 -0.566729
-0.420859 0.420860 1.158351 0.582568 -0.582568 -0.566729
-0.330666 0.494878 1.158351 0.457717 -0.685018 -0.566729
-0.227766 0.549879 1.158351 0.315256 -0.761162 -0.566729
-0.116114 0.583748 1.158351 0.160710 -0.808039 -0.566729
0.000000 0.584716 1.870017 1.000000 0.000000 0.000000
-0.114072 0.573481 1.870017 0.195013 -0.980407 -0.027253
-0.223761 0.540208 1.870017 0.382519 -0.923521 -0.027253
-0.324850 0.486174 1.870017 0.555345 -0.831141 -0.027253
-0.413456 0.413458 1.870017 0.706839 -0.706839 -0.027253
-0.486174 0.324852 1.870017 0.831141 -0.555345 -0.027253
-0.540207 0.223762 1.870017 0.923521 -0.382519 -0.027253
-0.573481 0.114073 1.870017 0.980407 -0.195013 -0.027253
-0.584716 0.000000 1.870017 0.999603 0.000000 -0.027253
-0.573481 -0.114072 1.870017 0.980407 0.195013 -0.027253
-0.540208 -0.223761 1.870017 0.923521 0.382519 -0.027253
-0.486174 -0.324851 1.870017 0.831141 0.555345 -0.027253
-0.413457 -0.413457 1.870017 0.706839 0.706839 -0.027253
-0.324851 -0.486174 1.870017 0.555345 0.831141 -0.027253
-0.223762 -0.540208 1.870017 0.382519 0.923521 -0.027253
-0.114073 -0.573481 1.870017 0.195013 0.980407 -0.027253
-0.000000 -0.584717 1.870017 0.000000 0.999603 -0.027253
0.114072 -0.573481 1.870017 -0.195013 0.980407 -0.027253
0.223761 -0.540208 1.870017 -0.382519 0.923521 -0.027253
0.324851 -0.486174 1.870017 -0.555345 0.831141 -0.027253
0.413457 -0.413457 1.870017 -0.706839 0.706839 -0.027253
0.486174 -0.324851 1.870017 -0.831141 0.555345 -0.027253
0.540208 -0.223761 1.870017 0.382672 0.923856 0.000000
0.573481 -0.114073 1.870017 0.980407 -0.195013 0.027253
0.584717 -0.000000 1.870017 0.999603 0.000000 0.027253
0.573481 0.114072 1.870017 0.980407 0.195013 0.027253
0.540208 0.223761 1.870017 0.923521 0.382519 0.027253
0.486174 0.324851 1.870017 0.831141 0.555345 0.027253
0.413457 0.413457 1.870017 0.706839 0.706839 0.027253
0.324851 0.486174 1.870017 0.555345 0.831141 0.027253
0.223761 0.540208 1.870017 0.382519 0.923521 0.027253
0.114073 0.573481 1.870017 0.195013 0.980407 0.027253
0.000000 0.546335 2.831524 0.972564 -0.205878 0.108066
0.106585 0.535838 2.831524 0.184576 0.937773 -0.294107
0.209074 0.504748 2.831524 0.363506 0.882229 -0.299173
0.303528 0.454261 2.831524 0.527970 0.793023 -0.303781
0.386317 0.386317 2.831524 0.671834 0.673696 -0.307779
0.454261 0.303527 2.831524 0.789636 0.528855 -0.311014
0.504748 0.209073 2.831524 0.877041 0.364055 -0.313395
0.535838 0.106585 2.831524 0.930815 0.185492 -0.314859
0.546335 -0.000000 2.831524 0.948943 0.000000 -0.315348
0.535838 -0.106585 2.831524 0.930815 -0.185492 -0.314859
0.504748 -0.209074 2.831524 0.310251 0.949522 0.045717
0.454261 -0.303528 2.831524 -0.789636 0.528855 0.311014
0.386317 -0.386318 2.831524 -0.671834 0.673696 0.307779
0.303528 -0.454261 2.831524 -0.527970 0.793023 0.303781
0.209073 -0.504748 2.831524 -0.363506 0.882229 0.299173
0.106585 -0.535838 2.831524 -0.184576 0.937773 0.294107
-0.000000 -0.546335 2.831524 0.001953 0.957396 0.288736
-0.106585 -0.535838 2.831524 0.189001 0.940184 0.283303
-0.209074 -0.504748 2.831524 0.369304 0.886715 0.278024
-0.303528 -0.454261 2.831524 0.535844 0.798914 0.273080
-0.386318 -0.386317 2.831524 0.682119 0.680044 0.268685
-0.454261 -0.303527 2.831524 0.802362 0.534715 0.265053
-0.504748 -0.209073 2.831524 0.891812 0.368542 0.262307
-0.535838 -0.106584 2.831524 0.946959 0.187933 0.260628
-0.546335 0.000000 2.831524 0.965575 0.000000 0.260048
-0.535838 0.106585 2.831524 0.946959 -0.187933 0.260628
-0.504748 0.209074 2.831524 0.891812 -0.368542 0.262307
-0.454261 0.303528 2.831524 0.802362 -0.534715 0.265053
-0.386317 0.386318 2.831524 0.682119 -0.680074 0.268685
-0.303527 0.454261 2.831524 0.535844 -0.798914 0.273080
-0.209073 0.504748 2.831524 0.369304 -0.886715 0.278024
-0.106584 0.535838 2.831524 0.189001 -0.940184 0.283303
0.007571 0.610421 2.922375 0.959014 0.209906 -0.190161
-0.111515 0.598692 2.922375 0.144963 -0.736991 0.660146
-0.226026 0.563956 2.922375 0.287332 -0.697653 0.656270
-0.331560 0.507547 2.922375 0.419782 -0.630757 0.652608
-0.424062 0.431634 2.922375 0.536882 -0.538560 0.649342
-0.499976 0.339133 2.922375 0.633686 -0.424543 0.646626
-0.556385 0.233599 2.922375 0.706046 -0.293161 0.644581
-0.591121 0.119088 2.922375 0.750786 -0.149663 0.643330
-0.602851 0.000000 2.922375 0.765923 0.000000 0.642903
-0.591122 -0.119087 2.922375 0.750786 0.149663 0.643330
-0.556385 -0.233598 2.922375 0.706046 0.293161 0.644581
-0.499976 -0.339132 2.922375 0.633686 0.424543 0.646626
-0.424063 -0.431633 2.922375 0.536882 0.538560 0.649342
-0.331561 -0.507547 2.922375 0.419782 0.630757 0.652608
-0.226028 -0.563956 2.922375 0.287332 0.697653 0.656270
-0.111517 -0.598693 2.922375 0.144963 0.736991 0.660146
0.007571 -0.610422 2.922375 -0.001587 0.747612 0.664083
0.126658 -0.598693 2.922375 -0.146672 0.729576 0.667959
0.241169 -0.563956 2.922375 -0.284829 0.683950 0.671590
0.346703 -0.507547 2.922375 -0.410993 0.612842 0.674886
0.439204 -0.431633 2.922375 -0.520676 0.519181 0.677694
0.515118 -0.339132 2.922375 -0.610065 0.406659 0.679983
0.571527 -0.233598 2.922375 0.452925 0.888119 -0.077853
0.606264 -0.119087 2.922375 0.716697 -0.142247 -0.682699
0.617993 -0.000000 2.922375 0.730369 0.000000 -0.683035
0.606263 0.119087 2.922375 0.716697 0.142247 -0.682699
0.571527 0.233598 2.922375 0.676168 0.279458 -0.681661
0.515118 0.339132 2.922375 0.610065 0.406659 -0.679983
0.439204 0.431633 2.922375 0.520676 0.519181 -0.677694
0.346703 0.507547 2.922375 0.410993 0.612842 -0.674886
0.241169 0.563956 2.922375 0.284829 0.683950 -0.671590
0.126658 0.598692 2.922375 0.146672 0.729576 -0.667959
0.007571 0.742646 3.043510 1.000000 0.000000 0.000000
0.152454 0.728376 3.043510 0.194128 0.976074 -0.097842
0.291769 0.686115 3.043510 0.380840 0.919431 -0.097842
0.420163 0.617488 3.043510 0.552873 0.827479 -0.097842
0.532701 0.525130 3.043510 0.703696 0.703696 -0.097842
0.625059 0.412592 3.043510 0.827479 0.552904 -0.097842
0.693687 0.284198 3.043510 0.919431 0.380840 -0.097842
0.735947 0.144883 3.043510 0.976074 0.194128 -0.097842
0.750217 -0.000000 3.043510 0.995178 0.000000 -0.097842
0.735947 -0.144883 3.043510 0.976074 -0.194128 -0.097842
0.693687 -0.284199 3.043510 0.382672 0.923856 0.000000
0.625059 -0.412592 3.043510 -0.827448 0.552904 0.097842
0.532701 -0.525130 3.043510 -0.703696 0.703696 0.097842
0.420163 -0.617488 3.043510 -0.552873 0.827479 0.097842
0.291769 -0.686116 3.043510 -0.380840 0.919431 0.097842
0.152454 -0.728377 3.043510 -0.194128 0.976074 0.097842
0.007571 -0.742646 3.043510 0.000000 0.995178 0.097842
-0.137312 -0.728377 3.043510 0.194128 0.976074 0.097842
-0.276628 -0.686116 3.043510 0.380840 0.919431 0.097842
-0.405021 -0.617488 3.043510 0.552904 0.827448 0.097842
-0.517560 -0.525130 3.043510 0.703696 0.703696 0.097842
-0.609917 -0.412592 3.043510 0.827479 0.552873 0.097842
-0.678545 -0.284198 3.043510 0.919431 0.380840 0.097842
-0.720806 -0.144883 3.043510 0.976074 0.194128 0.097842
-0.735075 0.000000 3.043510 0.995178 0.000000 0.097842
-0.720805 0.144884 3.043510 0.976074 -0.194128 0.097842
-0.678544 0.284199 3.043510 0.919431 -0.380840 0.097842
-0.609916 0.412593 3.043510 0.827448 -0.552904 0.097842
-0.517559 0.525131 3.043510 0.703696 -0.703696 0.097842
-0.405020 0.617488 3.043510 0.552873 -0.827479 0.097842
-0.276626 0.686116 3.043510 0.380840 -0.919431 0.097842
-0.137311 0.728376 3.043510 0.194128 -0.976074 0.097842
0.007571 0.698934 3.104078 0.061586 -0.712394 0.699026
-0.128783 0.685504 3.104078 0.191839 -0.964354 0.182104
-0.259899 0.645731 3.104078 0.376263 -0.908414 0.182134
-0.380735 0.581143 3.104078 0.546281 -0.817530 0.182134
-0.486649 0.494221 3.104078 0.695273 -0.695242 0.182134
-0.573571 0.388307 3.104078 0.817560 -0.546251 0.182134
-0.638159 0.267471 3.104078 0.908414 -0.376263 0.182134
-0.677933 0.136356 3.104078 0.964354 -0.191809 0.182134
-0.691363 0.000000 3.104078 0.983245 0.000000 0.182134
-0.677933 -0.136355 3.104078 0.964354 0.191809 0.182134
-0.638160 -0.267470 3.104078 0.908414 0.376263 0.182134
-0.573572 -0.388307 3.104078 0.817560 0.546251 0.182134
-0.486650 -0.494221 3.104078 0.695273 0.695242 0.182134
-0.380736 -0.581142 3.104078 0.546281 0.817530 0.182134
-0.259900 -0.645731 3.104078 0.376293 0.908414 0.182134
-0.128785 -0.685504 3.104078 0.191839 0.964354 0.182104
0.007571 -0.698934 3.104078 0.000000 0.983276 0.182104
0.143926 -0.685504 3.104078 -0.191809 0.964385 0.182104
0.275041 -0.645731 3.104078 -0.376263 0.908414 0.182104
0.395878 -0.581142 3.104078 -0.546251 0.817560 0.182073
0.501792 -0.494221 3.104078 -0.695273 0.695273 0.182073
0.588713 -0.388307 3.104078 -0.817560 0.546281 0.182073
0.653302 -0.267471 3.104078 -0.634754 0.329569 0.698874
0.693075 -0.136355 3.104078 -0.074343 0.014771 0.997101
0.706505 -0.000000 3.104078 0.494186 0.055147 0.867580
0.693075 0.136355 3.104078 0.495437 0.042299 0.867580
0.653302 0.267470 3.104078 -0.070009 -0.028993 0.997101
0.588713 0.388307 3.104078 -0.062990 -0.042085 0.997101
0.501792 0.494221 3.104078 -0.053529 -0.053560 0.997101
0.395878 0.581142 3.104078 -0.042024 -0.062929 0.997101
0.275041 0.645730 3.104078 -0.028932 -0.069887 0.997131
0.143926 0.685504 3.104078 -0.014710 -0.074129 0.997131
0.000000 0.000000 3.134361 0.026337 0.000000 0.999634
-0.156053 0.746474 3.353918 -0.158452 0.796136 -0.583941
-0.007571 0.761098 3.353918 -0.000092 0.811914 -0.583758
-0.298830 0.703163 3.353918 -0.310648 0.749809 -0.584155
-0.430414 0.632831 3.353918 -0.322001 0.556536 -0.765831
-0.545748 0.538178 3.353918 -0.194769 0.194647 -0.961333
-0.640400 0.422844 3.353918 -0.228736 0.152745 -0.961394
-0.710734 0.291260 3.353918 -0.253914 0.105106 -0.961486
-0.754045 0.148483 3.353918 -0.636830 0.084262 -0.766350
-0.768669 0.000000 3.353918 -0.811182 0.000000 -0.584765
-0.754045 -0.148483 3.353918 -0.795618 -0.158238 -0.584735
-0.710734 -0.291259 3.353918 -0.749504 -0.310404 -0.584674
-0.640401 -0.422843 3.353918 -0.556322 -0.321635 -0.766167
-0.545749 -0.538178 3.353918 -0.194769 -0.194647 -0.961333
-0.430415 -0.632830 3.353918 -0.153294 -0.229194 -0.961211
-0.298831 -0.703163 3.353918 -0.105808 -0.255104 -0.961089
-0.156054 -0.746474 3.353918 -0.084628 -0.637928 -0.765404
-0.007571 -0.761099 3.353918 -0.000092 -0.811914 -0.583758
0.140912 -0.746474 3.353918 0.158330 -0.796472 -0.583544
0.283689 -0.703163 3.353918 0.310709 -0.750389 -0.583361
0.415273 -0.632830 3.353918 0.322764 -0.558000 -0.764458
0.530607 -0.538178 3.353918 0.197180 -0.197333 -0.960295
0.625259 -0.422844 3.353918 0.232154 -0.155217 -0.960173
0.695592 -0.291260 3.353918 0.258217 -0.107028 -0.960112
0.738903 -0.148483 3.353918 0.639637 -0.084933 -0.763939
0.753527 -0.000000 3.353918 0.812647 0.000000 -0.582720
0.738903 0.148483 3.353918 0.796991 0.158544 -0.582751
0.695592 0.291259 3.353918 0.750725 0.310984 -0.582812
0.625259 0.422843 3.353918 0.558245 0.323160 -0.764122
0.530607 0.538178 3.353918 0.197180 0.197333 -0.960295
0.415273 0.632830 3.353918 0.154668 0.231697 -0.960387
0.283689 0.703163 3.353918 0.106296 0.257027 -0.960509
0.140912 0.746474 3.353918 0.084536 0.638508 -0.764916
-0.007571 0.761098 3.669847 0.000000 1.000000 0.000000
0.140912 0.746474 3.669847 0.097995 0.995178 0.000000
0.625259 0.422843 3.669847 0.881893 0.471389 0.000000
0.695592 0.291259 3.669847 0.923856 0.382672 0.000000
0.738903 0.148483 3.669847 0.980773 0.195074 0.000000
0.753527 -0.000000 3.669847 1.000000 0.000000 0.000000
0.738903 -0.148483 3.669847 0.995178 -0.097995 0.000000
0.415273 -0.632830 3.669847 0.471389 -0.881893 0.000000
0.283689 -0.703163 3.669847 0.382672 -0.923856 0.000000
0.140912 -0.746474 3.669847 0.195074 -0.980773 0.000000
-0.007571 -0.761099 3.669847 0.000000 -0.999969 0.000000
-0.156054 -0.746474 3.669847 -0.097995 -0.995178 0.000000
-0.640401 -0.422843 3.669847 -0.881893 -0.471389 0.000000
-0.710734 -0.291259 3.669847 -0.923856 -0.382672 0.000000
-0.754045 -0.148483 3.669847 -0.980773 -0.195074 0.000000
-0.768669 0.000000 3.669847 -1.000000 0.000000 0.000000
-0.754045 0.148483 3.669847 -0.995178 0.097995 0.000000
-0.430414 0.632831 3.669847 -0.471389 0.881893 0.000000
-0.298830 0.703163 3.669847 -0.382672 0.923856 0.000000
-0.156053 0.746474 3.669847 -0.195074 0.980773 0.000000
0.143926 0.685504 3.348809 -0.195074 -0.980773 0.000000
0.007571 0.698934 3.348809 0.000000 -1.000000 0.000000
0.275041 0.645730 3.348809 -0.382672 -0.923856 0.000000
0.395878 0.581142 3.348809 -0.555559 -0.831446 0.000000
0.501792 0.494221 3.348809 -0.707083 -0.707083 0.000000
0.588713 0.388307 3.348809 -0.831446 -0.555559 0.000000
0.653302 0.267470 3.348809 -0.923856 -0.382672 0.000000
0.693075 0.136355 3.348809 0.195074 -0.980773 0.000000
0.706505 -0.000000 3.348809 0.000000 1.000000 0.000000
0.693075 -0.136355 3.348809 -0.980773 0.195074 0.000000
0.653302 -0.267471 3.348809 -0.923856 0.382672 0.000000
0.588713 -0.388307 3.348809 -0.831446 0.555559 0.000000
0.501792 -0.494221 3.348809 -0.707083 0.707083 0.000000
0.395878 -0.581142 3.348809 -0.555559 0.831446 0.000000
0.275041 -0.645731 3.348809 -0.382672 0.923856 0.000000
0.143926 -0.685504 3.348809 -0.195074 0.980773 0.000000
0.007571 -0.698934 3.348809 0.000000 0.999969 0.000000
-0.128785 -0.685504 3.348809 0.195074 0.980773 0.000000
-0.259900 -0.645731 3.348809 0.382672 0.923856 0.000000
-0.380736 -0.581142 3.348809 0.555559 0.831446 0.000000
-0.486650 -0.494221 3.348809 0.707083 0.707083 0.000000
-0.573572 -0.388307 3.348809 0.831446 0.555559 0.000000
-0.638160 -0.267470 3.348809 0.923856 0.382672 0.000000
-0.677933 -0.136355 3.348809 0.980773 0.195074 0.000000
-0.691363 0.000000 3.348809 1.000000 0.000000 0.000000
-0.677933 0.136356 3.348809 0.980773 -0.195074 0.000000
-0.638159 0.267471 3.348809 0.923856 -0.382672 0.000000
-0.573571 0.388307 3.348809 0.831446 -0.555559 0.000000
-0.486649 0.494221 3.348809 0.707083 -0.707083 0.000000
-0.380735 0.581143 3.348809 0.555559 -0.831446 0.000000
-0.259899 0.645731 3.348809 0.382672 -0.923856 0.000000
-0.128783 0.685504 3.348809 0.195074 -0.980773 0.000000
3 0 1 2
3 0 2 3
3 0 3 4
3 0 4 5
3 0 5 6
3 0 6 7
3 0 7 8
3 0 8 9
3 0 9 10
3 0 10 11
3 0 11 12
3 0 12 13
3 0 13 14
3 0 14 15
3 0 15 16
3 0 16 17
3 0 17 18
3 0 18 19
3 0 19 20
3 0 20 21
3 0 21 22
3 0 22 23
3 0 24 23
3 0 25 24
3 0 26 25
3 0 27 26
3 0 28 27
3 0 29 28
3 0 30 29
3 0 31 30
3 0 32 31
3 0 1 32
4 1 33 34 32
4 32 34 35 31
4 31 35 36 30
4 30 36 37 29
4 28 29 37 38
4 28 38 39 27
4 26 27 39 40
4 26 40 41 25
4 24 25 41 42
4 23 24 42 43
4 23 22 44 43
4 21 45 44 22
4 20 46 45 21
4 20 19 47 46
4 19 18 48 47
4 17 49 48 18
4 17 16 50 49
4 16 15 51 50
4 14 52 51 15
4 14 13 53 52
4 12 54 53 13
4 12 11 55 54
4 10 56 55 11
4 10 9 57 56
4 9 8 58 57
4 7 59 58 8
4 7 6 60 59
4 5 61 60 6
4 5 4 62 61
4 4 3 63 62
4 2 64 63 3
4 1 33 64 2
4 33 65 66 64
4 64 66 67 63
4 62 63 67 68
4 61 62 68 69
4 61 69 70 60
4 59 60 70 71
4 59 71 72 58
4 57 58 72 73
4 56 57 73 74
4 56 74 75 55
4 54 55 75 76
4 54 76 77 53
4 52 53 77 78
4 52 78 79 51
4 50 51 79 80
4 49 50 80 81
4 49 81 82 48
4 47 48 82 83
4 46 47 83 84
4 46 84 85 45
4 45 85 86 44
4 43 44 86 87
4 43 42 88 87
4 42 41 89 88
4 40 90 89 41
4 40 39 91 90
4 38 92 91 39
4 38 37 93 92
4 36 94 93 37
4 35 95 94 36
4 34 96 95 35
4 33 65 96 34
4 65 97 98 96
4 96 98 99 95
4 95 99 100 94
4 94 100 101 93
4 92 93 101 102
4 92 102 103 91
4 90 91 103 104
4 90 104 105 89
4 88 89 105 106
4 87 88 106 107
4 87 86 108 107
4 85 109 108 86
4 84 110 109 85
4 84 83 111 110
4 83 82 112 111
4 81 113 112 82
4 81 80 114 113
4 80 79 115 114
4 78 116 115 79
4 78 77 117 116
4 76 118 117 77
4 76 75 119 118
4 74 120 119 75
4 74 73 121 120
4 73 72 122 121
4 71 123 122 72
4 71 70 124 123
4 69 125 124 70
4 69 68 126 125
4 68 67 127 126
4 66 128 127 67
4 65 97 128 66
4 97 129 130 128
4 128 130 131 127
4 126 127 131 132
4 125 126 132 133
4 125 133 134 124
4 123 124 134 135
4 123 135 136 122
4 121 122 136 137
4 120 121 137 138
4 120 138 139 119
4 118 119 139 140
4 118 140 141 117
4 116 117 141 142
4 116 142 143 115
4 114 115 143 144
4 113 114 144 145
4 113 145 146 112
4 111 112 146 147
4 110 111 147 148
4 110 148 149 109
4 109 149 150 108
4 107 108 150 151
4 107 106 152 151
4 106 105 153 152
4 104 154 153 105
4 104 103 155 154
4 102 156 155 103
4 102 101 157 156
4 100 158 157 101
4 99 159 158 100
4 98 160 159 99
4 97 129 160 98
4 129 161 162 160
4 160 162 163 159
4 159 163 164 158
4 158 164 165 157
4 156 157 165 166
4 156 166 167 155
4 154 155 167 168
4 154 168 169 153
4 152 153 169 170
4 151 152 170 171
4 151 150 172 171
4 149 173 172 150
4 148 174 173 149
4 148 147 175 174
4 147 146 176 175
4 145 177 176 146
4 145 144 178 177
4 144 143 179 178
4 142 180 179 143
4 142 141 181 180
4 140 182 181 141
4 140 139 183 182
4 138 184 183 139
4 138 137 185 184
4 137 136 186 185
4 135 187 186 136
4 135 134 188 187
4 133 189 188 134
4 133 132 190 189
4 132 131 191 190
4 130 192 191 131
4 129 161 192 130
4 161 193 194 192
4 192 194 195 191
4 190 191 195 196
4 189 190 196 197
4 189 197 198 188
4 187 188 198 199
4 187 199 200 186
4 185 186 200 201
4 184 185 201 202
4 184 202 203 183
4 182 183 203 204
4 182 204 205 181
4 180 181 205 206
4 180 206 207 179
4 178 179 207 208
4 177 178 208 209
4 177 209 210 176
4 175 176 210 211
4 174 175 211 212
4 174 212 213 173
4 173 213 214 172
4 171 172 214 215
4 171 170 216 215
4 170 169 217 216
4 168 218 217 169
4 168 167 219 218
4 166 220 219 167
4 166 165 221 220
4 164 222 221 165
4 163 223 222 164
4 162 224 223 163
4 161 193 224 162
4 193 225 226 224
4 224 226 227 223
4 223 227 228 222
4 222 228 229 221
4 220 221 229 230
4 220 230 231 219
4 218 219 231 232
4 218 232 233 217
4 216 217 233 234
4 215 216 234 235
4 215 214 236 235
4 213 237 236 214
4 212 238 237 213
4 212 211 239 238
4 211 210 240 239
4 209 241 240 210
4 209 208 242 241
4 208 207 243 242
4 206 244 243 207
4 206 205 245 244
4 204 246 245 205
4 204 203 247 246
4 202 248 247 203
4 202 201 249 248
4 201 200 250 249
4 199 251 250 200
4 199 198 252 251
4 197 253 252 198
4 197 196 254 253
4 196 195 255 254
4 194 256 255 195
4 193 225 256 194
4 225 257 258 256
4 256 258 259 255
4 254 255 259 260
4 253 254 260 261
4 253 261 262 252
4 251 252 262 263
4 251 263 264 250
4 249 250 264 265
4 248 249 265 266
4 248 266 267 247
4 246 247 267 268
4 246 268 269 245
4 244 245 269 270
4 244 270 271 243
4 242 243 271 272
4 241 242 272 273
4 241 273 274 240
4 239 240 274 275
4 238 239 275 276
4 238 276 277 237
4 237 277 278 236
4 235 236 278 279
4 235 234 280 279
4 234 233 281 280
4 232 282 281 233
4 232 231 283 282
4 230 284 283 231
4 230 229 285 284
4 228 286 285 229
4 227 287 286 228
4 226 288 287 227
4 225 257 288 226
4 257 289 290 288
4 288 290 291 287
4 287 291 292 286
4 286 292 293 285
4 284 285 293 294
4 284 294 295 283
4 282 283 295 296
4 282 296 297 281
4 280 281 297 298
4 279 280 298 299
4 279 278 300 299
4 277 301 300 278
4 276 302 301 277
4 276 275 303 302
4 275 274 304 303
4 273 305 304 274
4 273 272 306 305
4 272 271 307 306
4 270 308 307 271
4 270 269 309 308
4 268 310 309 269
4 268 267 311 310
4 266 312 311 267
4 266 265 313 312
4 265 264 314 313
4 263 315 314 264
4 263 262 316 315
4 261 317 316 262
4 261 260 318 317
4 260 259 319 318
4 258 320 319 259
4 257 289 320 258
4 289 321 322 320
4 320 322 323 319
4 318 319 323 324
4 317 318 324 325
4 317 325 326 316
4 315 316 326 327
4 315 327 328 314
4 313 314 328 329
4 312 313 329 330
4 312 330 331 311
4 310 311 331 332
4 310 332 333 309
4 308 309 333 334
4 308 334 335 307
4 306 307 335 336
4 305 306 336 337
4 305 337 338 304
4 303 304 338 339
4 302 303 339 340
4 302 340 341 301
4 301 341 342 300
4 299 300 342 343
4 299 298 344 343
4 298 297 345 344
4 296 346 345 297
4 296 295 347 346
4 294 348 347 295
4 294 293 349 348
4 292 350 349 293
4 291 351 350 292
4 290 352 351 291
4 289 321 352 290
4 321 353 354 352
4 352 354 355 351
4 351 355 356 350
4 350 356 357 349
4 348 349 357 358
4 348 358 359 347
4 346 347 359 360
4 346 360 361 345
4 344 345 361 362
4 343 344 362 363
4 343 342 364 363
4 341 365 364 342
4 340 366 365 341
4 340 339 367 366
4 339 338 368 367
4 337 369 368 338
4 337 336 370 369
4 336 335 371 370
4 334 372 371 335
4 334 333 373 372
4 332 374 373 333
4 332 331 375 374
4 330 376 375 331
4 330 329 377 376
4 329 328 378 377
4 327 379 378 328
4 327 326 380 379
4 325 381 380 326
4 325 324 382 381
4 324 323 383 382
4 322 384 383 323
4 321 353 384 322
4 353 385 386 384
4 384 386 387 383
4 382 383 387 388
4 381 382 388 389
4 381 389 390 380
4 379 380 390 391
4 379 391 392 378
4 377 378 392 393
4 376 377 393 394
4 376 394 395 375
4 374 375 395 396
4 374 396 397 373
4 372 373 397 398
4 372 398 399 371
4 370 371 399 400
4 369 370 400 401
4 369 401 402 368
4 367 368 402 403
4 366 367 403 404
4 366 404 405 365
4 365 405 406 364
4 363 364 406 407
4 363 362 408 407
4 362 361 409 408
4 360 410 409 361
4 360 359 411 410
4 358 412 411 359
4 358 357 413 412
4 356 414 413 357
4 355 415 414 356
4 354 416 415 355
4 353 385 416 354
4 385 417 418 416
4 416 418 419 415
4 415 419 420 414
4 414 420 421 413
4 412 413 421 422
4 412 422 423 411
4 410 411 423 424
4 410 424 425 409
4 408 409 425 426
4 407 408 426 427
4 407 406 428 427
4 405 429 428 406
4 404 430 429 405
4 404 403 431 430
4 403 402 432 431
4 401 433 432 402
4 401 400 434 433
4 400 399 435 434
4 398 436 435 399
4 398 397 437 436
4 396 438 437 397
4 396 395 439 438
4 394 440 439 395
4 394 393 441 440
4 393 392 442 441
4 391 443 442 392
4 391 390 444 443
4 389 445 444 390
4 389 388 446 445
4 388 387 447 446
4 386 448 447 387
4 385 417 448 386
4 417 449 450 448
4 448 450 451 447
4 446 447 451 452
4 445 446 452 453
4 445 453 454 444
4 443 444 454 455
4 443 455 456 442
4 441 442 456 457
4 440 441 457 458
4 440 458 459 439
4 438 439 459 460
4 438 460 461 437
4 436 437 461 462
4 436 462 463 435
4 434 435 463 464
4 433 434 464 465
4 433 465 466 432
4 431 432 466 467
4 430 431 467 468
4 430 468 469 429
4 429 469 470 428
4 427 428 470 471
4 427 426 472 471
4 426 425 473 472
4 424 474 473 425
4 424 423 475 474
4 422 476 475 423
4 422 421 477 476
4 420 478 477 421
4 419 479 478 420
4 418 480 479 419
4 417 449 480 418
4 449 481 482 480
4 480 482 483 479
4 479 483 484 478
4 478 484 485 477
4 476 477 485 486
4 476 486 487 475
4 474 475 487 488
4 474 488 489 473
4 472 473 489 490
4 471 472 490 491
4 471 470 492 491
4 469 493 492 470
4 468 494 493 469
4 468 467 495 494
4 467 466 496 495
4 465 497 496 466
4 465 464 498 497
4 464 463 499 498
4 462 500 499 463
4 462 461 501 500
4 460 502 501 461
4 460 459 503 502
4 458 504 503 459
4 458 457 505 504
4 457 456 506 505
4 455 507 506 456
4 455 454 508 507
4 453 509 508 454
4 453 452 510 509
4 452 451 511 510
4 450 512 511 451
4 449 481 512 450
4 481 513 514 512
4 512 514 515 511
4 510 511 515 516
4 509 510 516 517
4 509 517 518 508
4 507 508 518 519
4 507 519 520 506
4 505 506 520 521
4 504 505 521 522
4 504 522 523 503
4 502 503 523 524
4 502 524 525 501
4 500 501 525 526
4 500 526 527 499
4 498 499 527 528
4 497 498 528 529
4 497 529 530 496
4 495 496 530 531
4 494 495 531 532
4 494 532 533 493
4 493 533 534 492
4 491 492 534 535
4 491 490 536 535
4 490 489 537 536
4 488 538 537 489
4 488 487 539 538
4 486 540 539 487
4 486 485 541 540
4 484 542 541 485
4 483 543 542 484
4 482 544 543 483
4 481 513 544 482
3 513 545 544
3 544 545 543
3 543 545 542
3 542 545 541
3 540 541 545
3 540 545 539
3 538 539 545
3 538 545 537
3 536 537 545
3 535 536 545
3 535 545 534
3 533 534 545
3 532 533 545
3 532 545 531
3 531 545 530
3 529 530 545
3 529 545 528
3 528 545 527
3 526 527 545
3 526 545 525
3 524 525 545
3 524 545 523
3 522 523 545
3 522 545 521
3 521 545 520
3 519 520 545
3 519 545 518
3 517 518 545
3 517 545 516
3 516 545 515
3 514 515 545
3 513 514 545
3 545 546 547
3 545 548 546
3 545 549 548
3 545 550 549
3 545 551 550
3 545 552 551
3 545 553 552
3 545 554 553
3 545 555 554
3 545 556 555
3 545 557 556
3 545 558 557
3 545 559 558
3 545 560 559
3 545 561 560
3 545 562 561
3 545 563 562
3 545 564 563
3 545 565 564
3 545 566 565
3 545 567 566
3 545 568 567
3 545 569 568
3 545 570 569
3 545 571 570
3 545 572 571
3 545 573 572
3 545 574 573
3 545 575 574
3 545 576 575
3 545 577 576
3 545 547 577
4 547 578 579 577
4 573 580 581 572
4 571 572 581 582
4 571 582 583 570
4 569 570 583 584
4 565 585 586 564
4 564 586 587 563
4 562 563 587 588
4 562 588 589 561
4 557 590 591 556
4 555 556 591 592
4 555 592 593 554
4 554 593 594 553
4 549 595 596 548
4 546 548 596 597
4 547 546 597 578
4 544 598 599 513
4 543 600 598 544
4 542 601 600 543
4 541 602 601 542
4 541 540 603 602
4 539 604 603 540
4 539 538 605 604
4 537 538 605 606
4 537 536 607 606
4 536 535 608 607
4 534 609 608 535
4 534 533 610 609
4 533 532 611 610
4 531 612 611 532
4 530 613 612 531
4 530 529 614 613
4 528 615 614 529
4 527 616 615 528
4 527 526 617 616
4 525 618 617 526
4 525 524 619 618
4 523 620 619 524
4 523 522 621 620
4 521 622 621 522
4 520 623 622 521
4 520 519 624 623
4 518 625 624 519
4 518 517 626 625
4 516 627 626 517
4 515 628 627 516
4 515 514 629 628
4 514 513 599 629
